<svg width="122" height="122" viewBox="0 0 122 122" fill="none" xmlns="http://www.w3.org/2000/svg">
<path d="M54.1444 31.72H66.9849C67.3712 31.0727 67.4831 30.2323 67.1815 29.4393L54.1478 13.4945V31.72H54.1444Z" fill="#B78B60"/>
<path d="M43.3914 75.4943C43.1982 74.3116 42.9711 73.1933 42.6933 72.197C40.5921 64.6635 38.8299 61.4745 39.5823 53.5784C40.565 48.2104 40.5074 37.4371 54.7746 39.1146C58.5431 39.5586 64.4093 42.2561 67.7676 42.1985C69.6891 42.1646 71.0888 38.2776 71.2141 36.983C71.387 35.2005 68.2828 32.1708 66.9848 31.7167C65.6869 31.2626 60.1664 29.5783 57.8992 28.9242C54.3781 27.9042 54.5611 23.1462 54.3375 21.4517C54.2324 20.6553 54.6221 19.8691 55.3338 19.4489C56.0455 19.0287 56.6046 19.4218 57.296 19.8725L60.2951 22.0685C61.9794 23.5122 57.3333 26.2707 58.5905 26.7316C58.5905 26.7316 64.538 28.9649 67.0865 29.4292C68.4827 29.6833 73.3017 24.2476 73.583 21.0586C73.8033 18.5508 62.0675 7.22179 53.7004 2.82301C50.7588 1.27768 49.0339 0.379624 47.0954 0.471124C44.7808 0.579568 44.0522 1.49457 41.1716 3.96168C28.1346 15.1145 15.4805 39.2332 13.6234 44.5707C6.01193 66.4663 4.82243 78.0021 4.55132 84.519C4.38526 86.5184 4.29376 88.5077 4.29376 90.4766C4.51404 90.4766 0.904871 107.421 4.29376 110.81C7.68265 114.199 22.343 114.199 22.343 114.199C56.2319 127.717 119.164 124.189 119.164 89.687C119.164 48.4375 55.4084 53.9105 43.3914 75.4943Z" fill="#D4AB88"/>
<path d="M69.9125 108.709C59.2037 107.584 50.8399 102.334 50.3688 102.033C48.793 101.026 48.3321 98.9386 49.3352 97.3594C50.3383 95.7802 52.4293 95.3159 54.0119 96.3156C54.1474 96.4003 67.5776 104.761 80.6011 101.287C87.8025 99.369 93.7059 94.1196 98.1454 85.6948C99.0197 84.0343 101.08 83.4039 102.724 84.2749C104.378 85.1458 105.015 87.1961 104.144 88.8533C98.7723 99.0403 91.4218 105.435 82.2955 107.851C78.0357 108.977 73.8165 109.119 69.9125 108.709Z" fill="#B78B60"/>
</svg>
