<svg width="20" height="20" viewBox="0 0 20 20" fill="none" xmlns="http://www.w3.org/2000/svg">
<path d="M16.1111 6.14444C16.1111 9.72166 13.3333 10.2772 13.3333 13.6111C13.3333 15.3322 11.5983 15.4772 10.2778 15.4772C9.13722 15.4772 6.61889 15.0444 6.61889 13.61C6.61889 10.2778 3.88889 9.72222 3.88889 6.14444C3.88889 2.79388 6.825 0.0777702 10.0461 0.0777702C13.2683 0.0777702 16.1111 2.79388 16.1111 6.14444Z" fill="#FFD983"/>
<path d="M12.315 18.0556C12.315 18.5156 11.0739 19.4444 10 19.4444C8.92611 19.4444 7.685 18.5156 7.685 18.0556C7.685 17.5956 8.92555 17.7778 10 17.7778C11.0739 17.7778 12.315 17.5956 12.315 18.0556Z" fill="#CCD6DD"/>
<path d="M12.615 5.71833C12.3978 5.50111 12.0467 5.50111 11.8294 5.71833L9.99999 7.54777L8.17055 5.71833C7.95333 5.50111 7.60222 5.50111 7.38499 5.71833C7.16777 5.93555 7.16777 6.28666 7.38499 6.50388L9.44444 8.56333V14.4444C9.44444 14.7517 9.69333 15 9.99999 15C10.3067 15 10.5555 14.7517 10.5555 14.4444V8.56333L12.615 6.50388C12.8322 6.28666 12.8322 5.93555 12.615 5.71833V5.71833Z" fill="#FFCC4D"/>
<path d="M13.3333 17.2222C13.3333 17.8356 12.8355 18.3333 12.2222 18.3333H7.77777C7.16443 18.3333 6.66666 17.8356 6.66666 17.2222V13.8889H13.3333V17.2222Z" fill="#99AAB5"/>
<path d="M6.66611 17.7778C6.39944 17.7778 6.16388 17.585 6.11888 17.3133C6.06833 17.0111 6.27277 16.7245 6.57555 16.6745L13.2422 15.5633C13.5444 15.5089 13.8311 15.7172 13.8811 16.02C13.9317 16.3222 13.7272 16.6089 13.4244 16.6589L6.75777 17.77C6.72722 17.7756 6.69611 17.7778 6.66611 17.7778V17.7778ZM6.66611 15.5556C6.39944 15.5556 6.16388 15.3628 6.11888 15.0911C6.06833 14.7889 6.27277 14.5022 6.57555 14.4522L13.2422 13.3411C13.5444 13.2872 13.8311 13.495 13.8811 13.7978C13.9317 14.1 13.7272 14.3867 13.4244 14.4367L6.75777 15.5478C6.72722 15.5533 6.69611 15.5556 6.66611 15.5556V15.5556Z" fill="#CCD6DD"/>
</svg>
