<svg width="94" height="44" viewBox="0 0 94 44" fill="none" xmlns="http://www.w3.org/2000/svg">
<g opacity="0.5">
<g opacity="0.9">
<path d="M25.8333 21.1666H20.8333V16.1666C20.8333 15.9456 20.7455 15.7337 20.5893 15.5774C20.433 15.4211 20.221 15.3333 20 15.3333C19.779 15.3333 19.567 15.4211 19.4107 15.5774C19.2545 15.7337 19.1667 15.9456 19.1667 16.1666V21.1666H14.1667C13.9457 21.1666 13.7337 21.2544 13.5774 21.4107C13.4211 21.567 13.3333 21.779 13.3333 22C13.3333 22.221 13.4211 22.433 13.5774 22.5892C13.7337 22.7455 13.9457 22.8333 14.1667 22.8333H19.1667V27.8333C19.1667 28.0543 19.2545 28.2663 19.4107 28.4226C19.567 28.5788 19.779 28.6666 20 28.6666C20.221 28.6666 20.433 28.5788 20.5893 28.4226C20.7455 28.2663 20.8333 28.0543 20.8333 27.8333V22.8333H25.8333C26.0543 22.8333 26.2663 22.7455 26.4226 22.5892C26.5789 22.433 26.6667 22.221 26.6667 22C26.6667 21.779 26.5789 21.567 26.4226 21.4107C26.2663 21.2544 26.0543 21.1666 25.8333 21.1666Z" fill="#8F8E8A"/>
<path d="M45.6364 16.3636V28H44.2727L37.9318 18.8636H37.8182V28H36.4091V16.3636H37.7727L44.1364 25.5227H44.25V16.3636H45.6364ZM53.7741 24.4318V19.2727H55.1151V28H53.7741V26.5227H53.6832C53.4787 26.9659 53.1605 27.3428 52.7287 27.6534C52.2969 27.9602 51.7514 28.1136 51.0923 28.1136C50.5469 28.1136 50.062 27.9943 49.6378 27.7557C49.2135 27.5133 48.8802 27.1496 48.6378 26.6648C48.3954 26.1761 48.2741 25.5606 48.2741 24.8182V19.2727H49.6151V24.7273C49.6151 25.3636 49.7931 25.8712 50.1491 26.25C50.509 26.6288 50.9673 26.8182 51.5241 26.8182C51.8575 26.8182 52.1965 26.733 52.5412 26.5625C52.8897 26.392 53.1813 26.1307 53.4162 25.7784C53.6548 25.4261 53.7741 24.9773 53.7741 24.4318ZM61.2301 28.1818C60.3892 28.1818 59.6638 27.9962 59.054 27.625C58.4479 27.25 57.9801 26.7273 57.6506 26.0568C57.3248 25.3826 57.1619 24.5985 57.1619 23.7045C57.1619 22.8106 57.3248 22.0227 57.6506 21.3409C57.9801 20.6553 58.4384 20.1212 59.0256 19.7386C59.6165 19.3523 60.3059 19.1591 61.0938 19.1591C61.5483 19.1591 61.9972 19.2348 62.4403 19.3864C62.8835 19.5379 63.2869 19.7841 63.6506 20.125C64.0142 20.4621 64.304 20.9091 64.5199 21.4659C64.7358 22.0227 64.8438 22.7083 64.8438 23.5227V24.0909H58.1165V22.9318H63.4801C63.4801 22.4394 63.3816 22 63.1847 21.6136C62.9915 21.2273 62.715 20.9223 62.3551 20.6989C61.9991 20.4754 61.5786 20.3636 61.0938 20.3636C60.5597 20.3636 60.0975 20.4962 59.7074 20.7614C59.321 21.0227 59.0237 21.3636 58.8153 21.7841C58.607 22.2045 58.5028 22.6553 58.5028 23.1364V23.9091C58.5028 24.5682 58.6165 25.1269 58.8438 25.5852C59.0748 26.0398 59.3949 26.3864 59.804 26.625C60.2131 26.8598 60.6884 26.9773 61.2301 26.9773C61.5824 26.9773 61.9006 26.928 62.1847 26.8295C62.4725 26.7273 62.7206 26.5758 62.929 26.375C63.1373 26.1705 63.2983 25.9167 63.4119 25.6136L64.7074 25.9773C64.571 26.4167 64.3419 26.803 64.0199 27.1364C63.6979 27.4659 63.3002 27.7235 62.8267 27.9091C62.3532 28.0909 61.821 28.1818 61.2301 28.1818ZM73.7543 19.2727L70.527 28H69.1634L65.9361 19.2727H67.3906L69.7997 26.2273H69.8906L72.2997 19.2727H73.7543ZM78.7571 28.1818C77.9692 28.1818 77.2779 27.9943 76.6832 27.6193C76.0923 27.2443 75.6302 26.7197 75.2969 26.0455C74.9673 25.3712 74.8026 24.5833 74.8026 23.6818C74.8026 22.7727 74.9673 21.9792 75.2969 21.3011C75.6302 20.6231 76.0923 20.0966 76.6832 19.7216C77.2779 19.3466 77.9692 19.1591 78.7571 19.1591C79.545 19.1591 80.2344 19.3466 80.8253 19.7216C81.42 20.0966 81.8821 20.6231 82.2116 21.3011C82.545 21.9792 82.7116 22.7727 82.7116 23.6818C82.7116 24.5833 82.545 25.3712 82.2116 26.0455C81.8821 26.7197 81.42 27.2443 80.8253 27.6193C80.2344 27.9943 79.545 28.1818 78.7571 28.1818ZM78.7571 26.9773C79.3556 26.9773 79.848 26.8239 80.2344 26.517C80.6207 26.2102 80.9067 25.8068 81.0923 25.3068C81.2779 24.8068 81.3707 24.2652 81.3707 23.6818C81.3707 23.0985 81.2779 22.5549 81.0923 22.0511C80.9067 21.5473 80.6207 21.1402 80.2344 20.8295C79.848 20.5189 79.3556 20.3636 78.7571 20.3636C78.1586 20.3636 77.6662 20.5189 77.2798 20.8295C76.8935 21.1402 76.6075 21.5473 76.4219 22.0511C76.2363 22.5549 76.1435 23.0985 76.1435 23.6818C76.1435 24.2652 76.2363 24.8068 76.4219 25.3068C76.6075 25.8068 76.8935 26.2102 77.2798 26.517C77.6662 26.8239 78.1586 26.9773 78.7571 26.9773Z" fill="#8F8E8A"/>
</g>
</g>
</svg>
