<svg width="20" height="20" viewBox="0 0 20 20" fill="none" xmlns="http://www.w3.org/2000/svg">
<path d="M16.6667 7.44999C16.658 7.37344 16.6412 7.29802 16.6167 7.22499V7.14999C16.5766 7.06431 16.5232 6.98554 16.4583 6.91666L11.4583 1.91666C11.3895 1.85184 11.3107 1.79839 11.225 1.75832H11.1417C11.0606 1.71499 10.9736 1.68409 10.8833 1.66666H5.83334C5.1703 1.66666 4.53442 1.93005 4.06558 2.39889C3.59674 2.86773 3.33334 3.50362 3.33334 4.16666V15.8333C3.33334 16.4964 3.59674 17.1323 4.06558 17.6011C4.53442 18.0699 5.1703 18.3333 5.83334 18.3333H14.1667C14.8297 18.3333 15.4656 18.0699 15.9344 17.6011C16.4033 17.1323 16.6667 16.4964 16.6667 15.8333V7.49999C16.6667 7.49999 16.6667 7.49999 16.6667 7.44999ZM11.6667 4.50832L13.825 6.66666H12.5C12.279 6.66666 12.067 6.57886 11.9108 6.42258C11.7545 6.2663 11.6667 6.05434 11.6667 5.83332V4.50832ZM15 15.8333C15 16.0543 14.9122 16.2663 14.7559 16.4226C14.5997 16.5789 14.3877 16.6667 14.1667 16.6667H5.83334C5.61233 16.6667 5.40037 16.5789 5.24409 16.4226C5.08781 16.2663 5.00001 16.0543 5.00001 15.8333V4.16666C5.00001 3.94564 5.08781 3.73368 5.24409 3.5774C5.40037 3.42112 5.61233 3.33332 5.83334 3.33332H10V5.83332C10 6.49636 10.2634 7.13225 10.7322 7.60109C11.2011 8.06993 11.837 8.33332 12.5 8.33332H15V15.8333Z" fill="#37352F"/>
</svg>
